<svg width="103" height="26" viewBox="0 0 103 26" fill="none" xmlns="http://www.w3.org/2000/svg">
<path d="M11.6667 11.6666L1 6.33331V19.6666L11.6667 25V11.6666Z" fill="#3B82F6"/>
<path d="M22.3333 19.6666L11.6667 25V11.6666L22.3333 6.33331V19.6666Z" fill="#1D4ED8"/>
<path d="M11.6667 1L1 6.33331L11.6667 11.6666L22.3333 6.33331L11.6667 1Z" fill="#2563EB"/>
<path
        d="M1 6.33331L11.6667 11.6666M1 6.33331V19.6666L11.6667 25M1 6.33331L11.6667 1L22.3333 6.33331M11.6667 11.6666V25M11.6667 11.6666L22.3333 6.33331M11.6667 25L22.3333 19.6666V6.33331"
        stroke="#0f172a" stroke-width="1.33333" stroke-linejoin="round" />
<path d="M31.3973 17.644C30.7573 17.644 30.1653 17.528 29.6213 17.296C29.0853 17.064 28.6133 16.74 28.2053 16.324C27.8053 15.908 27.4933 15.42 27.2693 14.86C27.0453 14.3 26.9333 13.688 26.9333 13.024C26.9333 12.36 27.0413 11.748 27.2573 11.188C27.4813 10.62 27.7933 10.132 28.1933 9.724C28.6013 9.308 29.0773 8.988 29.6213 8.764C30.1653 8.532 30.7573 8.416 31.3973 8.416C32.0373 8.416 32.6093 8.524 33.1133 8.74C33.6253 8.956 34.0573 9.244 34.4093 9.604C34.7613 9.956 35.0133 10.344 35.1653 10.768L33.7013 11.452C33.5333 11.004 33.2493 10.636 32.8493 10.348C32.4493 10.052 31.9653 9.904 31.3973 9.904C30.8373 9.904 30.3413 10.036 29.9093 10.3C29.4853 10.564 29.1533 10.928 28.9133 11.392C28.6813 11.856 28.5653 12.4 28.5653 13.024C28.5653 13.648 28.6813 14.196 28.9133 14.668C29.1533 15.132 29.4853 15.496 29.9093 15.76C30.3413 16.024 30.8373 16.156 31.3973 16.156C31.9653 16.156 32.4493 16.012 32.8493 15.724C33.2493 15.428 33.5333 15.056 33.7013 14.608L35.1653 15.292C35.0133 15.716 34.7613 16.108 34.4093 16.468C34.0573 16.82 33.6253 17.104 33.1133 17.32C32.6093 17.536 32.0373 17.644 31.3973 17.644ZM36.3583 17.5V8.416H37.9303V12.256L37.7143 12.028C37.8663 11.636 38.1143 11.34 38.4583 11.14C38.8103 10.932 39.2183 10.828 39.6823 10.828C40.1623 10.828 40.5863 10.932 40.9543 11.14C41.3303 11.348 41.6223 11.64 41.8303 12.016C42.0383 12.384 42.1423 12.812 42.1423 13.3V17.5H40.5703V13.672C40.5703 13.384 40.5143 13.136 40.4023 12.928C40.2903 12.72 40.1343 12.56 39.9343 12.448C39.7423 12.328 39.5143 12.268 39.2503 12.268C38.9943 12.268 38.7663 12.328 38.5663 12.448C38.3663 12.56 38.2103 12.72 38.0983 12.928C37.9863 13.136 37.9303 13.384 37.9303 13.672V17.5H36.3583ZM46.6636 17.644C46.0236 17.644 45.4396 17.496 44.9116 17.2C44.3916 16.904 43.9756 16.5 43.6636 15.988C43.3596 15.476 43.2076 14.892 43.2076 14.236C43.2076 13.58 43.3596 12.996 43.6636 12.484C43.9756 11.972 44.3916 11.568 44.9116 11.272C45.4316 10.976 46.0156 10.828 46.6636 10.828C47.3036 10.828 47.8836 10.976 48.4036 11.272C48.9236 11.568 49.3356 11.972 49.6396 12.484C49.9516 12.988 50.1076 13.572 50.1076 14.236C50.1076 14.892 49.9516 15.476 49.6396 15.988C49.3276 16.5 48.9116 16.904 48.3916 17.2C47.8716 17.496 47.2956 17.644 46.6636 17.644ZM46.6636 16.204C47.0156 16.204 47.3236 16.12 47.5876 15.952C47.8596 15.784 48.0716 15.552 48.2236 15.256C48.3836 14.952 48.4636 14.612 48.4636 14.236C48.4636 13.852 48.3836 13.516 48.2236 13.228C48.0716 12.932 47.8596 12.7 47.5876 12.532C47.3236 12.356 47.0156 12.268 46.6636 12.268C46.3036 12.268 45.9876 12.356 45.7156 12.532C45.4436 12.7 45.2276 12.932 45.0676 13.228C44.9156 13.516 44.8396 13.852 44.8396 14.236C44.8396 14.612 44.9156 14.952 45.0676 15.256C45.2276 15.552 45.4436 15.784 45.7156 15.952C45.9876 16.12 46.3036 16.204 46.6636 16.204ZM54.4917 17.644C53.8517 17.644 53.2677 17.496 52.7397 17.2C52.2197 16.904 51.8037 16.5 51.4917 15.988C51.1877 15.476 51.0357 14.892 51.0357 14.236C51.0357 13.58 51.1877 12.996 51.4917 12.484C51.8037 11.972 52.2197 11.568 52.7397 11.272C53.2597 10.976 53.8437 10.828 54.4917 10.828C55.1317 10.828 55.7117 10.976 56.2317 11.272C56.7517 11.568 57.1637 11.972 57.4677 12.484C57.7797 12.988 57.9357 13.572 57.9357 14.236C57.9357 14.892 57.7797 15.476 57.4677 15.988C57.1557 16.5 56.7397 16.904 56.2197 17.2C55.6997 17.496 55.1237 17.644 54.4917 17.644ZM54.4917 16.204C54.8437 16.204 55.1517 16.12 55.4157 15.952C55.6877 15.784 55.8997 15.552 56.0517 15.256C56.2117 14.952 56.2917 14.612 56.2917 14.236C56.2917 13.852 56.2117 13.516 56.0517 13.228C55.8997 12.932 55.6877 12.7 55.4157 12.532C55.1517 12.356 54.8437 12.268 54.4917 12.268C54.1317 12.268 53.8157 12.356 53.5437 12.532C53.2717 12.7 53.0557 12.932 52.8957 13.228C52.7437 13.516 52.6677 13.852 52.6677 14.236C52.6677 14.612 52.7437 14.952 52.8957 15.256C53.0557 15.552 53.2717 15.784 53.5437 15.952C53.8157 16.12 54.1317 16.204 54.4917 16.204ZM61.6118 17.644C60.9158 17.644 60.3078 17.48 59.7878 17.152C59.2758 16.816 58.9238 16.364 58.7318 15.796L59.9078 15.232C60.0758 15.6 60.3078 15.888 60.6038 16.096C60.9078 16.304 61.2438 16.408 61.6118 16.408C61.8998 16.408 62.1278 16.344 62.2958 16.216C62.4638 16.088 62.5478 15.92 62.5478 15.712C62.5478 15.584 62.5118 15.48 62.4398 15.4C62.3758 15.312 62.2838 15.24 62.1638 15.184C62.0518 15.12 61.9278 15.068 61.7918 15.028L60.7238 14.728C60.1718 14.568 59.7518 14.324 59.4638 13.996C59.1838 13.668 59.0438 13.28 59.0438 12.832C59.0438 12.432 59.1438 12.084 59.3438 11.788C59.5518 11.484 59.8358 11.248 60.1958 11.08C60.5638 10.912 60.9838 10.828 61.4558 10.828C62.0718 10.828 62.6158 10.976 63.0878 11.272C63.5598 11.568 63.8958 11.984 64.0958 12.52L62.8958 13.084C62.7838 12.788 62.5958 12.552 62.3318 12.376C62.0678 12.2 61.7718 12.112 61.4438 12.112C61.1798 12.112 60.9718 12.172 60.8198 12.292C60.6678 12.412 60.5918 12.568 60.5918 12.76C60.5918 12.88 60.6238 12.984 60.6878 13.072C60.7518 13.16 60.8398 13.232 60.9518 13.288C61.0718 13.344 61.2078 13.396 61.3598 13.444L62.4038 13.756C62.9398 13.916 63.3518 14.156 63.6398 14.476C63.9358 14.796 64.0838 15.188 64.0838 15.652C64.0838 16.044 63.9798 16.392 63.7718 16.696C63.5638 16.992 63.2758 17.224 62.9078 17.392C62.5398 17.56 62.1078 17.644 61.6118 17.644ZM68.3879 17.644C67.7159 17.644 67.1279 17.492 66.6239 17.188C66.1199 16.884 65.7279 16.472 65.4479 15.952C65.1679 15.432 65.0279 14.856 65.0279 14.224C65.0279 13.568 65.1679 12.988 65.4479 12.484C65.7359 11.972 66.1239 11.568 66.6119 11.272C67.1079 10.976 67.6599 10.828 68.2679 10.828C68.7799 10.828 69.2279 10.912 69.6119 11.08C70.0039 11.248 70.3359 11.48 70.6079 11.776C70.8799 12.072 71.0879 12.412 71.2319 12.796C71.3759 13.172 71.4479 13.58 71.4479 14.02C71.4479 14.132 71.4399 14.248 71.4239 14.368C71.4159 14.488 71.3959 14.592 71.3639 14.68H66.3239V13.48H70.4759L69.7319 14.044C69.8039 13.676 69.7839 13.348 69.6719 13.06C69.5679 12.772 69.3919 12.544 69.1439 12.376C68.9039 12.208 68.6119 12.124 68.2679 12.124C67.9399 12.124 67.6479 12.208 67.3919 12.376C67.1359 12.536 66.9399 12.776 66.8039 13.096C66.6759 13.408 66.6279 13.788 66.6599 14.236C66.6279 14.636 66.6799 14.992 66.8159 15.304C66.9599 15.608 67.1679 15.844 67.4399 16.012C67.7199 16.18 68.0399 16.264 68.3999 16.264C68.7599 16.264 69.0639 16.188 69.3119 16.036C69.5679 15.884 69.7679 15.68 69.9119 15.424L71.1839 16.048C71.0559 16.36 70.8559 16.636 70.5839 16.876C70.3119 17.116 69.9879 17.304 69.6119 17.44C69.2439 17.576 68.8359 17.644 68.3879 17.644ZM76.4883 17.5V10H74.1723V8.56H80.4123V10H78.1323V17.5H76.4883ZM83.5285 17.644C82.8565 17.644 82.2685 17.492 81.7645 17.188C81.2605 16.884 80.8685 16.472 80.5885 15.952C80.3085 15.432 80.1685 14.856 80.1685 14.224C80.1685 13.568 80.3085 12.988 80.5885 12.484C80.8765 11.972 81.2645 11.568 81.7525 11.272C82.2485 10.976 82.8005 10.828 83.4085 10.828C83.9205 10.828 84.3685 10.912 84.7525 11.08C85.1445 11.248 85.4765 11.48 85.7485 11.776C86.0205 12.072 86.2285 12.412 86.3725 12.796C86.5165 13.172 86.5885 13.58 86.5885 14.02C86.5885 14.132 86.5805 14.248 86.5645 14.368C86.5565 14.488 86.5365 14.592 86.5045 14.68H81.4645V13.48H85.6165L84.8725 14.044C84.9445 13.676 84.9245 13.348 84.8125 13.06C84.7085 12.772 84.5325 12.544 84.2845 12.376C84.0445 12.208 83.7525 12.124 83.4085 12.124C83.0805 12.124 82.7885 12.208 82.5325 12.376C82.2765 12.536 82.0805 12.776 81.9445 13.096C81.8165 13.408 81.7685 13.788 81.8005 14.236C81.7685 14.636 81.8205 14.992 81.9565 15.304C82.1005 15.608 82.3085 15.844 82.5805 16.012C82.8605 16.18 83.1805 16.264 83.5405 16.264C83.9005 16.264 84.2045 16.188 84.4525 16.036C84.7085 15.884 84.9085 15.68 85.0525 15.424L86.3245 16.048C86.1965 16.36 85.9965 16.636 85.7245 16.876C85.4525 17.116 85.1285 17.304 84.7525 17.44C84.3845 17.576 83.9765 17.644 83.5285 17.644ZM90.9242 17.644C90.2762 17.644 89.6922 17.496 89.1722 17.2C88.6602 16.896 88.2562 16.488 87.9602 15.976C87.6642 15.456 87.5162 14.872 87.5162 14.224C87.5162 13.576 87.6642 12.996 87.9602 12.484C88.2562 11.972 88.6602 11.568 89.1722 11.272C89.6922 10.976 90.2762 10.828 90.9242 10.828C91.3882 10.828 91.8202 10.912 92.2202 11.08C92.6202 11.24 92.9642 11.464 93.2522 11.752C93.5482 12.032 93.7602 12.368 93.8882 12.76L92.5082 13.36C92.3882 13.032 92.1842 12.768 91.8962 12.568C91.6162 12.368 91.2922 12.268 90.9242 12.268C90.5802 12.268 90.2722 12.352 90.0002 12.52C89.7362 12.688 89.5282 12.92 89.3762 13.216C89.2242 13.512 89.1482 13.852 89.1482 14.236C89.1482 14.62 89.2242 14.96 89.3762 15.256C89.5282 15.552 89.7362 15.784 90.0002 15.952C90.2722 16.12 90.5802 16.204 90.9242 16.204C91.3002 16.204 91.6282 16.104 91.9082 15.904C92.1882 15.704 92.3882 15.436 92.5082 15.1L93.8882 15.724C93.7602 16.092 93.5522 16.424 93.2642 16.72C92.9762 17.008 92.6322 17.236 92.2322 17.404C91.8322 17.564 91.3962 17.644 90.9242 17.644ZM95.0809 17.5V8.416H96.6529V12.256L96.4369 12.028C96.5889 11.636 96.8369 11.34 97.1809 11.14C97.5329 10.932 97.9409 10.828 98.4049 10.828C98.8849 10.828 99.3089 10.932 99.6769 11.14C100.053 11.348 100.345 11.64 100.553 12.016C100.761 12.384 100.865 12.812 100.865 13.3V17.5H99.2929V13.672C99.2929 13.384 99.2369 13.136 99.1249 12.928C99.0129 12.72 98.8569 12.56 98.6569 12.448C98.4649 12.328 98.2369 12.268 97.9729 12.268C97.7169 12.268 97.4889 12.328 97.2889 12.448C97.0889 12.56 96.9329 12.72 96.8209 12.928C96.7089 13.136 96.6529 13.384 96.6529 13.672V17.5H95.0809Z" fill="white"/>
</svg>
